<svg xmlns="http://www.w3.org/2000/svg" version="1.1" xmlns:xlink="http://www.w3.org/1999/xlink" width="512" height="512" x="0" y="0" viewBox="0 0 682.667 682.667" style="enable-background:new 0 0 512 512" xml:space="preserve" class=""><g><defs><clipPath id="a" clipPathUnits="userSpaceOnUse"><path d="M0 512h512V0H0Z" fill="#000000" opacity="1" data-original="#000000"></path></clipPath></defs><g clip-path="url(#a)" transform="matrix(1.33333 0 0 -1.33333 0 682.667)"><path d="M0 0v262.891C0 342.083 64.427 406.51 143.618 406.51c79.192 0 143.618-64.427 143.618-143.619V0Z" style="fill-opacity:1;fill-rule:nonzero;stroke:none" transform="translate(112.382 63.5)" fill="#c5bec6" data-original="#c5bec6" class=""></path><path d="M0 0c24.062 18.184 54.003 28.979 86.419 28.979 79.191 0 143.618-64.428 143.618-143.619v-262.891H-57.199v262.891c0 34.172 11.996 65.595 31.999 90.279" style="stroke-width:15;stroke-linecap:round;stroke-linejoin:round;stroke-miterlimit:10;stroke-dasharray:none;stroke-opacity:1" transform="translate(169.581 441.031)" fill="none" stroke="#000000" stroke-width="15" stroke-linecap="round" stroke-linejoin="round" stroke-miterlimit="10" stroke-dasharray="none" stroke-opacity="" data-original="#000000" class=""></path><path d="M0 0h-223.236v261.891c0 61.646 49.972 111.619 111.618 111.619C-49.973 373.51 0 323.537 0 261.891Z" style="fill-opacity:1;fill-rule:nonzero;stroke:none" transform="translate(367.618 64.5)" fill="#c77e67" data-original="#c77e67" class=""></path><path d="M0 0c0 61.646 49.974 111.619 111.619 111.619 11.701 0 22.981-1.805 33.578-5.144-18.411 13.391-41.07 21.296-65.578 21.296-61.645 0-111.618-49.973-111.618-111.619v-261.891H0Z" style="fill-opacity:1;fill-rule:nonzero;stroke:none" transform="translate(176.38 310.239)" fill="#be694e" data-original="#be694e" class=""></path><path d="M0 0v351.45" style="stroke-width:15;stroke-linecap:round;stroke-linejoin:round;stroke-miterlimit:10;stroke-dasharray:none;stroke-opacity:1" transform="translate(295.13 79.5)" fill="none" stroke="#000000" stroke-width="15" stroke-linecap="round" stroke-linejoin="round" stroke-miterlimit="10" stroke-dasharray="none" stroke-opacity="" data-original="#000000" class=""></path><path d="M0 0v351.45" style="stroke-width:15;stroke-linecap:round;stroke-linejoin:round;stroke-miterlimit:10;stroke-dasharray:none;stroke-opacity:1" transform="translate(216.87 79.5)" fill="none" stroke="#000000" stroke-width="15" stroke-linecap="round" stroke-linejoin="round" stroke-miterlimit="10" stroke-dasharray="none" stroke-opacity="" data-original="#000000" class=""></path><path d="M0 0v261.891C0 323.537 49.973 373.51 111.618 373.51c61.646 0 111.618-49.973 111.618-111.619V0" style="stroke-width:15;stroke-linecap:round;stroke-linejoin:round;stroke-miterlimit:10;stroke-dasharray:none;stroke-opacity:1" transform="translate(144.382 64.5)" fill="none" stroke="#000000" stroke-width="15" stroke-linecap="round" stroke-linejoin="round" stroke-miterlimit="10" stroke-dasharray="none" stroke-opacity="" data-original="#000000" class=""></path><path d="M0 0v-27.51a5 5 0 0 1 5-5h333.68c2.76 0 5 2.239 5 5V0a5 5 0 0 1-5 5H5a5 5 0 0 1-5-5" style="fill-opacity:1;fill-rule:nonzero;stroke:none" transform="translate(84.16 74.5)" fill="#8c818f" data-original="#8c818f"></path><path d="M0 0h-222.017a5 5 0 0 1-5-5v-27.51c0-2.761 2.24-5 5-5h333.68a5 5 0 0 1 5 5V-5a5 5 0 0 1-5 5H35" style="stroke-width:15;stroke-linecap:round;stroke-linejoin:round;stroke-miterlimit:10;stroke-dasharray:none;stroke-opacity:1" transform="translate(311.177 79.5)" fill="none" stroke="#000000" stroke-width="15" stroke-linecap="round" stroke-linejoin="round" stroke-miterlimit="10" stroke-dasharray="none" stroke-opacity="" data-original="#000000" class=""></path><path d="M144.382 149.68h223.236v35.476H144.382Z" style="fill-opacity:1;fill-rule:nonzero;stroke:none" fill="#d8ab8c" data-original="#d8ab8c"></path><path d="M176.381 185.156h-31.999V149.68h31.999z" style="fill-opacity:1;fill-rule:nonzero;stroke:none" fill="#c7865b" data-original="#c7865b"></path><path d="M144.382 149.68h223.236v35.476H144.382Z" style="stroke-width:15;stroke-linecap:round;stroke-linejoin:round;stroke-miterlimit:10;stroke-dasharray:none;stroke-opacity:1" fill="none" stroke="#000000" stroke-width="15" stroke-linecap="round" stroke-linejoin="round" stroke-miterlimit="10" stroke-dasharray="none" stroke-opacity="" data-original="#000000" class=""></path><path d="M0 0c-30.474 0-55.177-24.703-55.177-55.176 0-30.474 24.703-55.178 55.177-55.178S55.177-85.65 55.177-55.176C55.177-24.703 30.474 0 0 0" style="fill-opacity:1;fill-rule:nonzero;stroke:none" transform="translate(256 380.536)" fill="#655e67" data-original="#655e67"></path><path d="M0 0c-30.474 0-55.177-24.703-55.177-55.176 0-30.474 24.703-55.178 55.177-55.178S55.177-85.65 55.177-55.176C55.177-24.703 30.474 0 0 0Z" style="stroke-width:15;stroke-linecap:round;stroke-linejoin:round;stroke-miterlimit:10;stroke-dasharray:none;stroke-opacity:1" transform="translate(256 380.536)" fill="none" stroke="#000000" stroke-width="15" stroke-linecap="round" stroke-linejoin="round" stroke-miterlimit="10" stroke-dasharray="none" stroke-opacity="" data-original="#000000" class=""></path><path d="M0 0c-13.451-4.727-23.097-17.533-23.097-32.6 0-15.066 9.646-27.872 23.097-32.599C13.45-60.472 23.096-47.666 23.096-32.6 23.096-17.533 13.45-4.727 0 0" style="fill-opacity:1;fill-rule:nonzero;stroke:none" transform="translate(470.15 366.519)" fill="#eec06b" data-original="#eec06b"></path><path d="M0 0c-13.451-4.727-23.097-17.533-23.097-32.6 0-15.066 9.646-27.872 23.097-32.599C13.45-60.472 23.096-47.666 23.096-32.6 23.096-17.533 13.45-4.727 0 0Z" style="stroke-width:15;stroke-linecap:round;stroke-linejoin:round;stroke-miterlimit:10;stroke-dasharray:none;stroke-opacity:1" transform="translate(470.15 366.519)" fill="none" stroke="#000000" stroke-width="15" stroke-linecap="round" stroke-linejoin="round" stroke-miterlimit="10" stroke-dasharray="none" stroke-opacity="" data-original="#000000" class=""></path><path d="M0 0v-29.826C0-30.861.839-31.7 1.873-31.7h64.954c1.034 0 1.873.839 1.873 1.874V0a1.874 1.874 0 0 1-1.873 1.874H1.873A1.874 1.874 0 0 1 0 0" style="fill-opacity:1;fill-rule:nonzero;stroke:none" transform="translate(435.8 305.304)" fill="#8c818f" data-original="#8c818f"></path><path d="M0 0v-29.826C0-30.861.839-31.7 1.873-31.7h64.954c1.034 0 1.873.839 1.873 1.874V0a1.874 1.874 0 0 1-1.873 1.874H1.873A1.874 1.874 0 0 1 0 0Z" style="stroke-width:15;stroke-linecap:round;stroke-linejoin:round;stroke-miterlimit:10;stroke-dasharray:none;stroke-opacity:1" transform="translate(435.8 305.304)" fill="none" stroke="#000000" stroke-width="15" stroke-linecap="round" stroke-linejoin="round" stroke-miterlimit="10" stroke-dasharray="none" stroke-opacity="" data-original="#000000" class=""></path><path d="m0 0-21.292 90.937H30.14L8.849 0C7.754-4.678 1.095-4.678 0 0" style="fill-opacity:1;fill-rule:nonzero;stroke:none" transform="translate(465.726 182.667)" fill="#c77e67" data-original="#c77e67" class=""></path><path d="m0 0-21.292 90.937H30.14L8.849 0C7.754-4.678 1.095-4.678 0 0Z" style="stroke-width:15;stroke-linecap:round;stroke-linejoin:round;stroke-miterlimit:10;stroke-dasharray:none;stroke-opacity:1" transform="translate(465.726 182.667)" fill="none" stroke="#000000" stroke-width="15" stroke-linecap="round" stroke-linejoin="round" stroke-miterlimit="10" stroke-dasharray="none" stroke-opacity="" data-original="#000000" class=""></path><path d="M0 0c-13.451-4.727-23.097-17.533-23.097-32.6 0-15.066 9.646-27.872 23.097-32.599C13.45-60.472 23.096-47.666 23.096-32.6 23.096-17.533 13.45-4.727 0 0" style="fill-opacity:1;fill-rule:nonzero;stroke:none" transform="translate(41.85 366.519)" fill="#eec06b" data-original="#eec06b"></path><path d="M0 0c-13.451-4.727-23.097-17.533-23.097-32.6 0-15.066 9.646-27.872 23.097-32.599C13.45-60.472 23.096-47.666 23.096-32.6 23.096-17.533 13.45-4.727 0 0Z" style="stroke-width:15;stroke-linecap:round;stroke-linejoin:round;stroke-miterlimit:10;stroke-dasharray:none;stroke-opacity:1" transform="translate(41.85 366.519)" fill="none" stroke="#000000" stroke-width="15" stroke-linecap="round" stroke-linejoin="round" stroke-miterlimit="10" stroke-dasharray="none" stroke-opacity="" data-original="#000000" class=""></path><path d="M0 0v-29.826C0-30.861.839-31.7 1.873-31.7h64.954c1.034 0 1.873.839 1.873 1.874V0a1.874 1.874 0 0 1-1.873 1.874H1.873A1.874 1.874 0 0 1 0 0" style="fill-opacity:1;fill-rule:nonzero;stroke:none" transform="translate(7.5 305.304)" fill="#8c818f" data-original="#8c818f"></path><path d="M0 0v-29.826C0-30.861.839-31.7 1.873-31.7h64.954c1.034 0 1.873.839 1.873 1.874V0a1.874 1.874 0 0 1-1.873 1.874H1.873A1.874 1.874 0 0 1 0 0Z" style="stroke-width:15;stroke-linecap:round;stroke-linejoin:round;stroke-miterlimit:10;stroke-dasharray:none;stroke-opacity:1" transform="translate(7.5 305.304)" fill="none" stroke="#000000" stroke-width="15" stroke-linecap="round" stroke-linejoin="round" stroke-miterlimit="10" stroke-dasharray="none" stroke-opacity="" data-original="#000000" class=""></path><path d="m0 0-21.291 90.937h51.432L8.849 0C7.754-4.678 1.095-4.678 0 0" style="fill-opacity:1;fill-rule:nonzero;stroke:none" transform="translate(37.426 182.667)" fill="#c77e67" data-original="#c77e67" class=""></path><path d="m0 0-21.291 90.937h51.432L8.849 0C7.754-4.678 1.095-4.678 0 0Z" style="stroke-width:15;stroke-linecap:round;stroke-linejoin:round;stroke-miterlimit:10;stroke-dasharray:none;stroke-opacity:1" transform="translate(37.426 182.667)" fill="none" stroke="#000000" stroke-width="15" stroke-linecap="round" stroke-linejoin="round" stroke-miterlimit="10" stroke-dasharray="none" stroke-opacity="" data-original="#000000" class=""></path><path d="M0 0c-8.539 0-15.461-6.922-15.461-15.461 0-8.539 6.922-15.46 15.461-15.46 8.539 0 15.461 6.921 15.461 15.46C15.461-6.922 8.539 0 0 0" style="fill-opacity:1;fill-rule:nonzero;stroke:none" transform="translate(179.38 241.843)" fill="#eec06b" data-original="#eec06b"></path><path d="M0 0c-8.539 0-15.461-6.922-15.461-15.461 0-8.539 6.922-15.46 15.461-15.46 8.539 0 15.461 6.921 15.461 15.46C15.461-6.922 8.539 0 0 0Z" style="stroke-width:15;stroke-linecap:round;stroke-linejoin:round;stroke-miterlimit:10;stroke-dasharray:none;stroke-opacity:1" transform="translate(179.38 241.843)" fill="none" stroke="#000000" stroke-width="15" stroke-linecap="round" stroke-linejoin="round" stroke-miterlimit="10" stroke-dasharray="none" stroke-opacity="" data-original="#000000" class=""></path></g></g></svg>
